<svg xmlns="http://www.w3.org/2000/svg" style="display: none;"><symbol id="instagram" viewBox="0 0 511 511.9"><title>instagram</title><path d="m510.949219 150.5c-1.199219-27.199219-5.597657-45.898438-11.898438-62.101562-6.5-17.199219-16.5-32.597657-29.601562-45.398438-12.800781-13-28.300781-23.101562-45.300781-29.5-16.296876-6.300781-34.898438-10.699219-62.097657-11.898438-27.402343-1.300781-36.101562-1.601562-105.601562-1.601562s-78.199219.300781-105.5 1.5c-27.199219 1.199219-45.898438 5.601562-62.097657 11.898438-17.203124 6.5-32.601562 16.5-45.402343 29.601562-13 12.800781-23.097657 28.300781-29.5 45.300781-6.300781 16.300781-10.699219 34.898438-11.898438 62.097657-1.300781 27.402343-1.601562 36.101562-1.601562 105.601562s.300781 78.199219 1.5 105.5c1.199219 27.199219 5.601562 45.898438 11.902343 62.101562 6.5 17.199219 16.597657 32.597657 29.597657 45.398438 12.800781 13 28.300781 23.101562 45.300781 29.5 16.300781 6.300781 34.898438 10.699219 62.101562 11.898438 27.296876 1.203124 36 1.5 105.5 1.5s78.199219-.296876 105.5-1.5c27.199219-1.199219 45.898438-5.597657 62.097657-11.898438 34.402343-13.300781 61.601562-40.5 74.902343-74.898438 6.296876-16.300781 10.699219-34.902343 11.898438-62.101562 1.199219-27.300781 1.5-36 1.5-105.5s-.101562-78.199219-1.300781-105.5zm-46.097657 209c-1.101562 25-5.300781 38.5-8.800781 47.5-8.601562 22.300781-26.300781 40-48.601562 48.601562-9 3.5-22.597657 7.699219-47.5 8.796876-27 1.203124-35.097657 1.5-103.398438 1.5s-76.5-.296876-103.402343-1.5c-25-1.097657-38.5-5.296876-47.5-8.796876-11.097657-4.101562-21.199219-10.601562-29.398438-19.101562-8.5-8.300781-15-18.300781-19.101562-29.398438-3.5-9-7.699219-22.601562-8.796876-47.5-1.203124-27-1.5-35.101562-1.5-103.402343s.296876-76.5 1.5-103.398438c1.097657-25 5.296876-38.5 8.796876-47.5 4.101562-11.101562 10.601562-21.199219 19.203124-29.402343 8.296876-8.5 18.296876-15 29.398438-19.097657 9-3.5 22.601562-7.699219 47.5-8.800781 27-1.199219 35.101562-1.5 103.398438-1.5 68.402343 0 76.5.300781 103.402343 1.5 25 1.101562 38.5 5.300781 47.5 8.800781 11.097657 4.097657 21.199219 10.597657 29.398438 19.097657 8.5 8.300781 15 18.300781 19.101562 29.402343 3.5 9 7.699219 22.597657 8.800781 47.5 1.199219 27 1.5 35.097657 1.5 103.398438s-.300781 76.300781-1.5 103.300781zm0 0"/><path d="m256.449219 124.5c-72.597657 0-131.5 58.898438-131.5 131.5s58.902343 131.5 131.5 131.5c72.601562 0 131.5-58.898438 131.5-131.5s-58.898438-131.5-131.5-131.5zm0 216.800781c-47.097657 0-85.300781-38.199219-85.300781-85.300781s38.203124-85.300781 85.300781-85.300781c47.101562 0 85.300781 38.199219 85.300781 85.300781s-38.199219 85.300781-85.300781 85.300781zm0 0"/><path d="m423.851562 119.300781c0 16.953125-13.746093 30.699219-30.703124 30.699219-16.953126 0-30.699219-13.746094-30.699219-30.699219 0-16.957031 13.746093-30.699219 30.699219-30.699219 16.957031 0 30.703124 13.742188 30.703124 30.699219zm0 0"/></symbol><symbol id="facebook" viewBox="0 0 24 24"><title>facebook</title><path d="m15.997 3.985h2.191v-3.816c-.378-.052-1.678-.169-3.192-.169-3.159 0-5.323 1.987-5.323 5.639v3.361h-3.486v4.266h3.486v10.734h4.274v-10.733h3.345l.531-4.266h-3.877v-2.939c.001-1.233.333-2.077 2.051-2.077z"/></symbol><symbol id="twitter" viewBox="0 0 512 512"><title>twitter</title><path d="M512,97.248c-19.04,8.352-39.328,13.888-60.48,16.576c21.76-12.992,38.368-33.408,46.176-58.016 c-20.288,12.096-42.688,20.64-66.56,25.408C411.872,60.704,384.416,48,354.464,48c-58.112,0-104.896,47.168-104.896,104.992 c0,8.32,0.704,16.32,2.432,23.936c-87.264-4.256-164.48-46.08-216.352-109.792c-9.056,15.712-14.368,33.696-14.368,53.056 c0,36.352,18.72,68.576,46.624,87.232c-16.864-0.32-33.408-5.216-47.424-12.928c0,0.32,0,0.736,0,1.152 c0,51.008,36.384,93.376,84.096,103.136c-8.544,2.336-17.856,3.456-27.52,3.456c-6.72,0-13.504-0.384-19.872-1.792 c13.6,41.568,52.192,72.128,98.08,73.12c-35.712,27.936-81.056,44.768-130.144,44.768c-8.608,0-16.864-0.384-25.12-1.44 C46.496,446.88,101.6,464,161.024,464c193.152,0,298.752-160,298.752-298.688c0-4.64-0.16-9.12-0.384-13.568 C480.224,136.96,497.728,118.496,512,97.248z"/></symbol><symbol id="pinterest" viewBox="0 0 24 24"><title>pinterest</title><path d="m12.326 0c-6.579.001-10.076 4.216-10.076 8.812 0 2.131 1.191 4.79 3.098 5.633.544.245.472-.054.94-1.844.037-.149.018-.278-.102-.417-2.726-3.153-.532-9.635 5.751-9.635 9.093 0 7.394 12.582 1.582 12.582-1.498 0-2.614-1.176-2.261-2.631.428-1.733 1.266-3.596 1.266-4.845 0-3.148-4.69-2.681-4.69 1.49 0 1.289.456 2.159.456 2.159s-1.509 6.096-1.789 7.235c-.474 1.928.064 5.049.111 5.318.029.148.195.195.288.073.149-.195 1.973-2.797 2.484-4.678.186-.685.949-3.465.949-3.465.503.908 1.953 1.668 3.498 1.668 4.596 0 7.918-4.04 7.918-9.053-.016-4.806-4.129-8.402-9.423-8.402z"/></symbol><symbol id="flags" viewBox="0 0 512 512"><title>flags</title><path d="M439.463,61.867c-4.616-2.685-10.318-2.685-14.933,0c-17.877,9.918-38.009,15.061-58.453,14.933 c-29.891,0.661-58.793-10.715-80.213-31.573c-24.728-24.205-58.162-37.431-92.757-36.693 c-27.861-0.241-55.101,8.232-77.909,24.235V25.6c0-14.138-11.461-25.6-25.6-25.6c-14.139,0-25.6,11.461-25.6,25.6v460.8 c0,14.138,11.461,25.6,25.6,25.6c14.138,0,25.6-11.461,25.6-25.6V264.533c2.828-0.265,5.522-1.33,7.765-3.072 c20.302-14.951,44.933-22.861,70.144-22.528c29.946-0.688,58.911,10.689,80.384,31.573c24.681,24.17,58.049,37.394,92.587,36.693 c26.469,0.308,52.431-7.266,74.581-21.76c4.74-3.285,7.501-8.742,7.339-14.507V76.8C448.052,70.648,444.791,64.943,439.463,61.867 z"/></symbol><symbol id="pencil" viewBox="0 0 469.336 469.336"><title>pencil</title><path d="M347.878,151.357c-4-4.003-11.083-4.003-15.083,0L129.909,354.414c-2.427,2.429-3.531,5.87-2.99,9.258 c0.552,3.388,2.698,6.307,5.76,7.84l16.656,8.34v28.049l-51.031,14.602l-51.51-51.554l14.59-51.075h28.025l8.333,16.67 c1.531,3.065,4.448,5.213,7.833,5.765c0.573,0.094,1.146,0.135,1.708,0.135c2.802,0,5.531-1.105,7.542-3.128L317.711,136.26 c2-2.002,3.125-4.712,3.125-7.548c0-2.836-1.125-5.546-3.125-7.548l-39.229-39.263c-2-2.002-4.708-3.128-7.542-3.128h-0.021 c-2.844,0.01-5.563,1.147-7.552,3.159L45.763,301.682c-0.105,0.107-0.1,0.27-0.201,0.379c-1.095,1.183-2.009,2.549-2.487,4.208 l-18.521,64.857L0.409,455.73c-1.063,3.722-0.021,7.736,2.719,10.478c2.031,2.033,4.75,3.128,7.542,3.128 c0.979,0,1.958-0.136,2.927-0.407l84.531-24.166l64.802-18.537c0.195-0.056,0.329-0.203,0.52-0.27 c0.673-0.232,1.262-0.61,1.881-0.976c0.608-0.361,1.216-0.682,1.73-1.146c0.138-0.122,0.319-0.167,0.452-0.298l219.563-217.789 c2.01-1.991,3.146-4.712,3.156-7.558c0.01-2.836-1.115-5.557-3.125-7.569L347.878,151.357z"/><path d="M456.836,76.168l-64-64.054c-16.125-16.139-44.177-16.17-60.365,0.031l-39.073,39.461 c-4.135,4.181-4.125,10.905,0.031,15.065l108.896,108.988c2.083,2.085,4.813,3.128,7.542,3.128c2.719,0,5.427-1.032,7.51-3.096 l39.458-39.137c8.063-8.069,12.5-18.787,12.5-30.192S464.899,84.237,456.836,76.168z"/></symbol><symbol id="responsive-design-symbol" viewBox="0 0 396.494 396.494"><title>responsive-design-symbol</title><path d="M304.42,330.901h-43.219c-1.56,0-2.834-1.273-2.834-2.834v-10.52c0-1.559-1.275-2.834-2.834-2.834h-60.475 c-1.56,0-2.835,1.275-2.835,2.834v10.52c0,1.561-1.275,2.834-2.835,2.834h-32.491c-1.56,0-2.835,1.275-2.835,2.834v12.17 c0,1.559,1.275,2.834,2.835,2.834h147.521c1.559,0,2.834-1.275,2.834-2.834v-12.17C307.254,332.179,305.979,330.901,304.42,330.901 z"/><g> <path d="M377.032,46.368h-308.4c-10.73,0-19.459,8.73-19.459,19.462c0,0,0,37.109,0,50.761c0,6.711-0.498,7.66,4.004,7.66 c2.391,0,5.039,0,7.72,0c3.778,0,3.003-0.949,3.003-7.785c0-13.621,0-50.636,0-50.636c0-2.565,2.168-4.733,4.732-4.733h308.4 c2.563,0,4.731,2.168,4.731,4.733v189.999h-219.87c0,0-7.749-0.014-7.749,10.006c0,5.941,0,17.823,0,23.766 c0,10.006,8,10.006,8,10.006h214.888c10.729,0,19.461-8.729,19.461-19.459V65.83C396.493,55.099,387.763,46.368,377.032,46.368z M222.833,282.804c-4.845,0-8.771-3.926-8.771-8.768s3.926-8.77,8.771-8.77c4.84,0,8.767,3.928,8.767,8.77 S227.673,282.804,222.833,282.804z"/> <path d="M124.125,141.633H12.559C5.632,141.633,0,147.266,0,154.193v183.372c0,6.926,5.632,12.561,12.559,12.561h111.566 c6.923,0,12.559-5.635,12.559-12.561V154.193C136.684,147.266,131.048,141.633,124.125,141.633z M54.58,154.443h27.523 c1.313,0,2.38,1.064,2.38,2.381c0,1.314-1.066,2.379-2.38,2.379H54.58c-1.315,0-2.379-1.065-2.379-2.379 C52.201,155.507,53.265,154.443,54.58,154.443z M68.175,341.304c-3.59,0-6.5-2.91-6.5-6.5s2.91-6.5,6.5-6.5s6.5,2.91,6.5,6.5 S71.765,341.304,68.175,341.304z M125.893,322.2c0,1.676-1.342,3.047-2.98,3.047H13.774c-1.639,0-2.98-1.371-2.98-3.047V169.825 c0-1.676,1.342-3.046,2.98-3.046h109.139c1.639,0,2.98,1.371,2.98,3.046V322.2z"/> </g></symbol><symbol id="briefcase" viewBox="0 0 512 512"><title>briefcase</title><path d="M469.333,106.667H362.667V85.333c0-23.531-19.135-42.667-42.667-42.667H192c-23.531,0-42.667,19.135-42.667,42.667 v21.333H42.667C19.135,106.667,0,125.802,0,149.333v64C0,236.865,19.135,256,42.667,256h170.667v-10.667 c0-5.896,4.771-10.667,10.667-10.667h64c5.896,0,10.667,4.771,10.667,10.667V256h170.667C492.865,256,512,236.865,512,213.333 v-64C512,125.802,492.865,106.667,469.333,106.667z M320,106.667H192V85.333h128V106.667z"/><path d="M506.083,267.51c-3.635-1.802-7.979-1.385-11.188,1.052c-7.583,5.74-16.417,8.771-25.563,8.771H298.667v32 c0,5.896-4.771,10.667-10.667,10.667h-64c-5.896,0-10.667-4.771-10.667-10.667v-32H42.667c-9.146,0-17.979-3.031-25.563-8.771 c-3.219-2.458-7.552-2.875-11.188-1.052C2.292,269.313,0,273.01,0,277.063v149.604c0,23.531,19.135,42.667,42.667,42.667h426.667 c23.531,0,42.667-19.135,42.667-42.667V277.063C512,273.01,509.708,269.313,506.083,267.51z"/></symbol><symbol id="coding" viewBox="0 0 511.997 511.997"><title>coding</title><g> <g> <path d="M506.76,242.828l-118.4-125.44c-7.277-7.718-19.424-8.07-27.142-0.787c-7.706,7.277-8.064,19.43-0.781,27.142 l105.965,112.256L360.437,368.268c-7.283,7.712-6.925,19.859,0.781,27.142c3.712,3.501,8.454,5.235,13.178,5.235 c5.101,0,10.195-2.022,13.965-6.01l118.4-125.446C513.742,261.785,513.742,250.226,506.76,242.828z"/> </g> </g><g> <g> <path d="M151.566,368.262L45.608,255.999l105.958-112.262c7.277-7.712,6.925-19.866-0.787-27.142 c-7.706-7.277-19.866-6.925-27.142,0.787l-118.4,125.44c-6.982,7.398-6.982,18.963,0,26.362L123.643,394.63 c3.776,4,8.864,6.016,13.965,6.016c4.723,0,9.466-1.741,13.171-5.242C158.498,388.127,158.843,375.974,151.566,368.262z"/> </g> </g><g> <g> <path d="M287.061,52.697c-10.477-1.587-20.282,5.606-21.882,16.083l-56.32,368.64c-1.6,10.483,5.6,20.282,16.083,21.882 c0.986,0.147,1.958,0.218,2.925,0.218c9.325,0,17.504-6.803,18.957-16.301l56.32-368.64 C304.744,64.095,297.544,54.297,287.061,52.697z"/> </g> </g></symbol><symbol id="search-engine-optimization" viewBox="0 0 512.025 512.025"><title>search-engine-optimization</title><path d="M158.4,339.513l-2.6,1.8c-15.4,11.1-20.8,9.6-22.7,7.8c-3.1-3.1-1.7-13.4,7.6-22.7c8.9-8.9,19.1-10.5,22.4-7.8 c4.5,3.8,11.3,3.1,15-1.4c3.8-4.5,3.1-11.3-1.4-15c-13.1-10.8-35-6.8-51.1,9.2c-16.9,16.9-20.2,40.1-7.6,52.8 c11.8,11.8,28.7,9.9,50.2-5.5l2.6-1.8c14.6-10.5,20.4-10,22.6-7.7c1.4,1.4,1.8,4.2,1.1,7.7c-1,5-4.2,10.5-8.7,15 c-8.9,8.9-19.1,10.6-22.4,7.8c-4.6-3.8-11.3-3.1-15,1.4c-3.8,4.5-3.1,11.3,1.4,15c5,4.1,11.2,6.1,17.9,6.1 c11,0,23.2-5.3,33.2-15.2c7.5-7.5,12.7-16.7,14.5-25.9c2.1-10.6-0.4-20.4-7-26.9C196.8,322.213,179.9,324.113,158.4,339.513z"/><path d="M276.5,281.313l-30.2,30.2l-15.1-15.1l22.6-22.6c4.2-4.2,4.2-10.9,0-15.1c-4.2-4.2-10.9-4.2-15.1,0l-22.6,22.6 l-15.1-15.1l30.2-30.2c4.2-4.2,4.2-10.9,0-15.1s-10.9-4.2-15.1,0l-37.7,37.7c-4.2,4.2-4.2,10.9,0,15.1l60.3,60.3 c2.1,2.1,4.8,3.1,7.6,3.1c2.8,0,5.5-1,7.6-3.1l37.7-37.7c4.2-4.2,4.2-10.9,0-15.1C287.4,277.113,280.7,277.113,276.5,281.313z"/><path d="M502.1,277.413c-5.9-0.4-11,4-11.4,9.9c-6.3,86.1-32.6,139.5-53.4,139.5c-14.4,0-32.5-29.1-43.5-80.1l90-90 c18.2-18.3,28.2-42.4,28.2-68.1v-135.3c0-29.4-23.9-53.3-53.3-53.3H323.3c-25.7,0-49.7,10-67.9,28.1l-237.2,237.3 c-11.7,11.7-18.2,27.3-18.2,44c0,16.6,6.5,32.2,18.2,43.9l140.5,140.5c11.7,11.7,27.3,18.2,44,18.2c16.6,0,32.2-6.5,43.9-18.2 l129.7-129.7c12.4,48.7,32.9,83.9,61.1,83.9c43.5,0,68.8-80,74.6-159.2C512.4,282.913,508,277.813,502.1,277.413z M362.7,117.413 c0-17.6,14.4-32,32-32c17.6,0,32,14.4,32,32c0,16.8-13.1,30.5-29.5,31.7c2.5-10.2,5.2-19.9,7.7-28.8c1.6-5.7-1.6-11.6-7.3-13.2 c-5.7-1.7-11.6,1.6-13.2,7.3c-2.6,9-5.3,18.9-7.9,29.3C368.2,137.913,362.7,128.313,362.7,117.413z M384,245.413 c0-26.4,3.6-51.6,8.4-74.9c0.8,0,1.5,0.2,2.2,0.2c29.4,0,53.3-23.9,53.3-53.3c0-29.4-23.8-53.4-53.2-53.4 c-29.4,0-53.3,23.9-53.3,53.3c0,21.2,12.5,39.3,30.4,47.9c-5.1,24.7-9.1,51.7-9.1,80.1c0,32,2.8,64.6,8.2,94l-139.4,139.5 c-15.3,15.3-42.2,15.5-57.7,0l-140.5-140.6c-7.7-7.7-11.9-17.9-11.9-28.9c0-10.9,4.2-21.1,11.9-28.8l237.3-237.3 c14.1-14.1,32.9-21.9,52.8-21.9h135.3c17.6,0,32,14.4,32,32v135.3c0,19.9-7.8,38.7-21.9,52.8l-79.6,79.7 C385.9,298.813,384,273.513,384,245.413z"/><path d="M321.8,175.713c-16.6-16.6-43.7-16.7-60.4,0c-16.6,16.6-16.6,43.7,0,60.3l15.1,15.1c8,8.1,18.8,12.5,30.2,12.5 s22.1-4.4,30.2-12.5c8.1-8,12.5-18.8,12.5-30.2c0-11.4-4.4-22.1-12.5-30.2L321.8,175.713z M321.8,236.013 c-8.1,8.1-22.1,8.1-30.2,0l-15.1-15.1c-8.3-8.3-8.3-21.8,0-30.2c4.2-4.1,9.6-6.2,15.1-6.2s10.9,2.1,15.1,6.2l15.1,15.1 c4,4,6.3,9.4,6.3,15.1C328,226.613,325.8,231.913,321.8,236.013z"/></symbol><symbol id="download" viewBox="0 0 512 512"><title>download</title><path d="m256 362.667969c-8.832031 0-16-7.167969-16-16v-330.667969c0-8.832031 7.167969-16 16-16s16 7.167969 16 16v330.667969c0 8.832031-7.167969 16-16 16zm0 0"/><path d="m256 362.667969c-4.097656 0-8.191406-1.558594-11.308594-4.695313l-85.332031-85.332031c-6.25-6.25-6.25-16.382813 0-22.636719 6.25-6.25 16.382813-6.25 22.636719 0l74.023437 74.027344 74.027344-74.027344c6.25-6.25 16.386719-6.25 22.636719 0 6.25 6.253906 6.25 16.386719 0 22.636719l-85.335938 85.332031c-3.15625 3.136719-7.25 4.695313-11.347656 4.695313zm0 0"/><path d="m453.332031 512h-394.664062c-32.363281 0-58.667969-26.304688-58.667969-58.667969v-96c0-8.832031 7.167969-16 16-16s16 7.167969 16 16v96c0 14.699219 11.96875 26.667969 26.667969 26.667969h394.664062c14.699219 0 26.667969-11.96875 26.667969-26.667969v-96c0-8.832031 7.167969-16 16-16s16 7.167969 16 16v96c0 32.363281-26.304688 58.667969-58.667969 58.667969zm0 0"/></symbol><symbol id="whatsapp" viewBox="0 0 58 58"><title>whatsapp</title><path style="fill:#2CB742;" d="M0,58l4.988-14.963C2.457,38.78,1,33.812,1,28.5C1,12.76,13.76,0,29.5,0S58,12.76,58,28.5 S45.24,57,29.5,57c-4.789,0-9.299-1.187-13.26-3.273L0,58z"/><path style="fill:#FFFFFF;" d="M47.683,37.985c-1.316-2.487-6.169-5.331-6.169-5.331c-1.098-0.626-2.423-0.696-3.049,0.42 c0,0-1.577,1.891-1.978,2.163c-1.832,1.241-3.529,1.193-5.242-0.52l-3.981-3.981l-3.981-3.981c-1.713-1.713-1.761-3.41-0.52-5.242 c0.272-0.401,2.163-1.978,2.163-1.978c1.116-0.627,1.046-1.951,0.42-3.049c0,0-2.844-4.853-5.331-6.169 c-1.058-0.56-2.357-0.364-3.203,0.482l-1.758,1.758c-5.577,5.577-2.831,11.873,2.746,17.45l5.097,5.097l5.097,5.097 c5.577,5.577,11.873,8.323,17.45,2.746l1.758-1.758C48.048,40.341,48.243,39.042,47.683,37.985z"/></symbol><symbol id="left-arrow" viewBox="0 0 492 492"><title>left-arrow</title><path d="M198.608,246.104L382.664,62.04c5.068-5.056,7.856-11.816,7.856-19.024c0-7.212-2.788-13.968-7.856-19.032l-16.128-16.12 C361.476,2.792,354.712,0,347.504,0s-13.964,2.792-19.028,7.864L109.328,227.008c-5.084,5.08-7.868,11.868-7.848,19.084 c-0.02,7.248,2.76,14.028,7.848,19.112l218.944,218.932c5.064,5.072,11.82,7.864,19.032,7.864c7.208,0,13.964-2.792,19.032-7.864 l16.124-16.12c10.492-10.492,10.492-27.572,0-38.06L198.608,246.104z"/></symbol><symbol id="right-arrow" viewBox="0 0 492.004 492.004"><title>right-arrow</title><path d="M382.678,226.804L163.73,7.86C158.666,2.792,151.906,0,144.698,0s-13.968,2.792-19.032,7.86l-16.124,16.12 c-10.492,10.504-10.492,27.576,0,38.064L293.398,245.9l-184.06,184.06c-5.064,5.068-7.86,11.824-7.86,19.028 c0,7.212,2.796,13.968,7.86,19.04l16.124,16.116c5.068,5.068,11.824,7.86,19.032,7.86s13.968-2.792,19.032-7.86L382.678,265 c5.076-5.084,7.864-11.872,7.848-19.088C390.542,238.668,387.754,231.884,382.678,226.804z"/></symbol><symbol id="down-arrow" viewBox="0 0 491.996 491.996"><title>down-arrow</title><path d="M484.132,124.986l-16.116-16.228c-5.072-5.068-11.82-7.86-19.032-7.86c-7.208,0-13.964,2.792-19.036,7.86l-183.84,183.848 L62.056,108.554c-5.064-5.068-11.82-7.856-19.028-7.856s-13.968,2.788-19.036,7.856l-16.12,16.128 c-10.496,10.488-10.496,27.572,0,38.06l219.136,219.924c5.064,5.064,11.812,8.632,19.084,8.632h0.084 c7.212,0,13.96-3.572,19.024-8.632l218.932-219.328c5.072-5.064,7.856-12.016,7.864-19.224 C491.996,136.902,489.204,130.046,484.132,124.986z"/></symbol><symbol id="up-arrow" viewBox="0 0 492.002 492.002"><title>up-arrow</title><path d="M484.136,328.473L264.988,109.329c-5.064-5.064-11.816-7.844-19.172-7.844c-7.208,0-13.964,2.78-19.02,7.844 L7.852,328.265C2.788,333.333,0,340.089,0,347.297c0,7.208,2.784,13.968,7.852,19.032l16.124,16.124 c5.064,5.064,11.824,7.86,19.032,7.86s13.964-2.796,19.032-7.86l183.852-183.852l184.056,184.064 c5.064,5.06,11.82,7.852,19.032,7.852c7.208,0,13.96-2.792,19.028-7.852l16.128-16.132 C494.624,356.041,494.624,338.965,484.136,328.473z"/></symbol><symbol id="google-plus" viewBox="0 0 512 512"><title>google-plus</title><g> <g> <polygon points="448,224 448,160 416,160 416,224 352,224 352,256 416,256 416,320 448,320 448,256 512,256 512,224 "/> </g> </g><g> <g> <path d="M160,224v64h90.528c-13.216,37.248-48.8,64-90.528,64c-52.928,0-96-43.072-96-96c0-52.928,43.072-96,96-96 c22.944,0,45.024,8.224,62.176,23.168l42.048-48.256C235.424,109.824,198.432,96,160,96C71.776,96,0,167.776,0,256 s71.776,160,160,160s160-71.776,160-160v-32H160z"/> </g> </g></symbol><symbol id="call" viewBox="0 0 512.006 512.006"><title>call</title><path d="M502.05,407.127l-56.761-37.844L394.83,335.65c-9.738-6.479-22.825-4.355-30.014,4.873l-31.223,40.139 c-6.707,8.71-18.772,11.213-28.39,5.888c-21.186-11.785-46.239-22.881-101.517-78.23c-55.278-55.349-66.445-80.331-78.23-101.517 c-5.325-9.618-2.822-21.683,5.888-28.389l40.139-31.223c9.227-7.188,11.352-20.275,4.873-30.014l-32.6-48.905L104.879,9.956 C98.262,0.03,85.016-2.95,74.786,3.185L29.95,30.083C17.833,37.222,8.926,48.75,5.074,62.277 C-7.187,106.98-9.659,205.593,148.381,363.633s256.644,155.56,301.347,143.298c13.527-3.851,25.055-12.758,32.194-24.876 l26.898-44.835C514.956,426.989,511.976,413.744,502.05,407.127z"/><path d="M291.309,79.447c82.842,0.092,149.977,67.226,150.069,150.069c0,4.875,3.952,8.828,8.828,8.828 c4.875,0,8.828-3.952,8.828-8.828c-0.102-92.589-75.135-167.622-167.724-167.724c-4.875,0-8.828,3.952-8.828,8.828 C282.481,75.494,286.433,79.447,291.309,79.447z"/><path d="M291.309,132.412c53.603,0.063,97.04,43.501,97.103,97.103c0,4.875,3.952,8.828,8.828,8.828 c4.875,0,8.828-3.952,8.828-8.828c-0.073-63.349-51.409-114.686-114.759-114.759c-4.875,0-8.828,3.952-8.828,8.828 C282.481,128.46,286.433,132.412,291.309,132.412z"/><path d="M291.309,185.378c24.365,0.029,44.109,19.773,44.138,44.138c0,4.875,3.952,8.828,8.828,8.828 c4.875,0,8.828-3.952,8.828-8.828c-0.039-34.111-27.682-61.754-61.793-61.793c-4.875,0-8.828,3.952-8.828,8.828 C282.481,181.426,286.433,185.378,291.309,185.378z"/></symbol><symbol id="envelope" viewBox="0 0 512 512"><title>envelope</title><path d="M10.688,95.156C80.958,154.667,204.26,259.365,240.5,292.01c4.865,4.406,10.083,6.646,15.5,6.646 c5.406,0,10.615-2.219,15.469-6.604c36.271-32.677,159.573-137.385,229.844-196.896c4.375-3.698,5.042-10.198,1.5-14.719 C494.625,69.99,482.417,64,469.333,64H42.667c-13.083,0-25.292,5.99-33.479,16.438C5.646,84.958,6.313,91.458,10.688,95.156z"/><path d="M505.813,127.406c-3.781-1.76-8.229-1.146-11.375,1.542C416.51,195.01,317.052,279.688,285.76,307.885 c-17.563,15.854-41.938,15.854-59.542-0.021c-33.354-30.052-145.042-125-208.656-178.917c-3.167-2.688-7.625-3.281-11.375-1.542 C2.417,129.156,0,132.927,0,137.083v268.25C0,428.865,19.135,448,42.667,448h426.667C492.865,448,512,428.865,512,405.333 v-268.25C512,132.927,509.583,129.146,505.813,127.406z"/></symbol><symbol id="placeholder" viewBox="-66 0 512 512.001"><title>placeholder</title><path d="m190.390625 103.976562c-47.648437 0-86.414063 38.765626-86.414063 86.410157 0 47.648437 38.765626 86.414062 86.414063 86.414062s86.410156-38.765625 86.410156-86.414062c0-47.644531-38.765625-86.410157-86.410156-86.410157zm0 0"/><path d="m191.167969.00390625-.800781-.00390625c-104.96875 0-190.367188 85.40625-190.367188 190.386719 0 57.554687 29.417969 102.445312 62.195312 147.148437l127.917969 174.464844s120.90625-164.148438 128.46875-174.460938c32.777344-44.703124 62.195313-89.59375 62.195313-147.148437 0-104.722656-84.980469-189.972656-189.609375-190.38671875zm-.777344 306.78906275c-64.1875 0-116.40625-52.21875-116.40625-116.40625 0-64.183594 52.21875-116.402344 116.40625-116.402344s116.40625 52.21875 116.40625 116.402344c0 64.1875-52.222656 116.40625-116.40625 116.40625zm0 0"/></symbol><symbol id="github-logo" viewBox="0 0 438.549 438.549"><title>github-logo</title><path d="M409.132,114.573c-19.608-33.596-46.205-60.194-79.798-79.8C295.736,15.166,259.057,5.365,219.271,5.365 c-39.781,0-76.472,9.804-110.063,29.408c-33.596,19.605-60.192,46.204-79.8,79.8C9.803,148.168,0,184.854,0,224.63 c0,47.78,13.94,90.745,41.827,128.906c27.884,38.164,63.906,64.572,108.063,79.227c5.14,0.954,8.945,0.283,11.419-1.996 c2.475-2.282,3.711-5.14,3.711-8.562c0-0.571-0.049-5.708-0.144-15.417c-0.098-9.709-0.144-18.179-0.144-25.406l-6.567,1.136 c-4.187,0.767-9.469,1.092-15.846,1c-6.374-0.089-12.991-0.757-19.842-1.999c-6.854-1.231-13.229-4.086-19.13-8.559 c-5.898-4.473-10.085-10.328-12.56-17.556l-2.855-6.57c-1.903-4.374-4.899-9.233-8.992-14.559 c-4.093-5.331-8.232-8.945-12.419-10.848l-1.999-1.431c-1.332-0.951-2.568-2.098-3.711-3.429c-1.142-1.331-1.997-2.663-2.568-3.997 c-0.572-1.335-0.098-2.43,1.427-3.289c1.525-0.859,4.281-1.276,8.28-1.276l5.708,0.853c3.807,0.763,8.516,3.042,14.133,6.851 c5.614,3.806,10.229,8.754,13.846,14.842c4.38,7.806,9.657,13.754,15.846,17.847c6.184,4.093,12.419,6.136,18.699,6.136 c6.28,0,11.704-0.476,16.274-1.423c4.565-0.952,8.848-2.383,12.847-4.285c1.713-12.758,6.377-22.559,13.988-29.41 c-10.848-1.14-20.601-2.857-29.264-5.14c-8.658-2.286-17.605-5.996-26.835-11.14c-9.235-5.137-16.896-11.516-22.985-19.126 c-6.09-7.614-11.088-17.61-14.987-29.979c-3.901-12.374-5.852-26.648-5.852-42.826c0-23.035,7.52-42.637,22.557-58.817 c-7.044-17.318-6.379-36.732,1.997-58.24c5.52-1.715,13.706-0.428,24.554,3.853c10.85,4.283,18.794,7.952,23.84,10.994 c5.046,3.041,9.089,5.618,12.135,7.708c17.705-4.947,35.976-7.421,54.818-7.421s37.117,2.474,54.823,7.421l10.849-6.849 c7.419-4.57,16.18-8.758,26.262-12.565c10.088-3.805,17.802-4.853,23.134-3.138c8.562,21.509,9.325,40.922,2.279,58.24 c15.036,16.18,22.559,35.787,22.559,58.817c0,16.178-1.958,30.497-5.853,42.966c-3.9,12.471-8.941,22.457-15.125,29.979 c-6.191,7.521-13.901,13.85-23.131,18.986c-9.232,5.14-18.182,8.85-26.84,11.136c-8.662,2.286-18.415,4.004-29.263,5.146 c9.894,8.562,14.842,22.077,14.842,40.539v60.237c0,3.422,1.19,6.279,3.572,8.562c2.379,2.279,6.136,2.95,11.276,1.995 c44.163-14.653,80.185-41.062,108.068-79.226c27.88-38.161,41.825-81.126,41.825-128.906 C438.536,184.851,428.728,148.168,409.132,114.573z"/></symbol></svg>